<?xml version="1.0" encoding="UTF-8"?><svg id="Flat" xmlns="http://www.w3.org/2000/svg" viewBox="0 0 64 64"><path d="M36,10.344c-.311-.046-.629-.061-.949-.045-.015-.054-.017-.109-.034-.163-.671-2.148-2.702-3.477-4.841-3.365-.015-.054-.017-.109-.034-.163-.794-2.542-3.49-3.961-6.02-3.17s-3.937,3.492-3.143,6.034c.017,.054,.047,.1,.065,.153-.98,.606-1.697,1.537-2.045,2.602l1,16.772,22-5-6-13.656Z" style="fill:#038443;"/><path d="M30.953,21.696l-2.415-7.586,.661-.812c.379-.466,.829-.865,1.337-1.188,.466-.296,.604-.913,.308-1.38-.296-.466-.915-.606-1.38-.308-.619,.393-1.164,.882-1.643,1.433l-1.257-3.949c-.168-.525-.729-.817-1.257-.649-.525,.168-.816,.73-.649,1.257l1.264,3.971c-.625-.165-1.268-.262-1.919-.263h-.002c-.552,0-.999,.446-1,.998,0,.553,.446,1.001,.998,1.002,.538,0,1.069,.078,1.58,.23l1.07,.317,2.398,7.534c.136,.425,.529,.696,.953,.696,.101,0,.202-.015,.304-.047,.525-.168,.816-.73,.649-1.257Z" style="fill:#057239;"/><path d="M61,32v3c0,12.15-9.85,22-22,22h-14c-12.15,0-22-9.85-22-22v-3H61Z" style="fill:#f2f2f2;"/><rect x="23" y="57" width="18" height="4" style="fill:#dddcdb;"/><path d="M61,32c0,1.06-2.99,2.02-7.86,2.74-3.24,.47-7.3,.84-11.89,1.05-1.8,.08-3.68,.14-5.63,.18-1.19,.02-2.39,.03-3.62,.03-3.73,0-7.28-.1-10.55-.27-1.8-.1-3.52-.22-5.12-.37-.15-.01-.29-.02-.44-.03-1.52-.14-2.94-.3-4.24-.48-.04,0-.07-.01-.11-.01-5.27-.73-8.54-1.73-8.54-2.84,0-.95,2.41-1.82,6.45-2.51,5.11-.88,12.8-1.44,21.47-1.48,.36-.01,.72-.01,1.08-.01,4.84,0,9.4,.16,13.41,.45,1.25,.09,2.44,.19,3.57,.3,7.28,.73,12.02,1.91,12.02,3.25Z" style="fill:#d1d1d1;"/><path d="M35.62,35.97c-1.19,.02-2.39,.03-3.62,.03-7.99,0-15.22-.45-20.46-1.16-.54-1.12-.93-1.95-.98-2.05-.49-1.1-.86-2.2-1.11-3.3-.07-.32-.13-.65-.18-.97-.25-1.58-.24-3.13,0-4.56,.3-1.78,.12-3.62-.71-5.23-.06-.11-.11-.23-.17-.34-1.6-3.52-.46-7.49,2.56-8.86,3.02-1.37,6.76,.36,8.36,3.88,.06,.12,.1,.23,.15,.35,.68,1.68,1.94,3.03,3.49,3.97,2.08,1.27,3.97,3.25,5.31,5.76l2.66,4.52,4.7,7.96Z" style="fill:#43aa8b;"/><path d="M21.91,31.168l-3.175-6.966c.958-1.477,1.097-3.31,.483-6.119-.117-.539-.654-.883-1.189-.764-.54,.117-.882,.65-.764,1.189,.305,1.399,.359,2.384,.289,3.101l-3.621-7.945c-.229-.503-.823-.726-1.325-.495-.502,.229-.724,.822-.495,1.325l3.613,7.928c-.63-.421-1.341-1.097-2.126-2.214-.316-.451-.941-.562-1.394-.243-.451,.317-.561,.941-.243,1.394,1.536,2.186,3.122,3.356,4.943,3.654l3.183,6.984c.168,.368,.531,.585,.911,.585,.139,0,.279-.028,.414-.09,.502-.229,.724-.822,.495-1.325Z" style="fill:#379173;"/><path d="M26.28,26.09c.01-.03,.02-.07,.03-.1,.37-1.06,1.07-1.92,1.95-2.5,.18-.12,.37-.23,.56-.33-.54-1.14-.66-2.49-.21-3.78,.64-1.83,2.24-3.04,4.03-3.29-.18-.86-.15-1.77,.15-2.67,.91-2.6,3.76-3.99,6.37-3.08,.69,.24,1.28,.62,1.78,1.09,.04-.14,.06-.29,.11-.43,.9-2.61,3.75-3.99,6.36-3.09,2.61,.91,3.99,3.76,3.08,6.37-.05,.14-.12,.27-.18,.4,.68-.06,1.38,.01,2.07,.25,2.61,.91,3.99,3.76,3.09,6.36-.31,.9-.86,1.63-1.53,2.19,1.25,1.31,1.76,3.25,1.12,5.08q0,.01-.01,.02c-.45,1.28-1.37,2.26-2.49,2.82,.34,.72,.51,1.52,.47,2.35l-27.03,1.25,.28-8.91Z" style="fill:#009d54;"/><path d="M49.156,20.216c-.047,0-.094,0-.14,0-1.861,0-3.666,.466-5.289,1.346l2.657-7.653c.182-.521-.095-1.092-.616-1.272-.523-.185-1.093,.095-1.272,.616l-2.655,7.647c-.746-1.735-1.912-3.247-3.423-4.41-.44-.337-1.066-.256-1.403,.183-.336,.438-.255,1.066,.183,1.403,1.478,1.137,2.559,2.676,3.127,4.452l.456,1.427-1.864,5.369c-.182,.521,.094,1.091,.616,1.272,.108,.038,.219,.056,.328,.056,.414,0,.801-.259,.944-.672l1.861-5.359,1.253-.845c1.516-1.021,3.276-1.56,5.099-1.56,.043,0,.094,.003,.127,0,.547,0,.993-.439,1-.987,.007-.553-.436-1.006-.987-1.013Z" style="fill:#038443;"/><path d="M40.481,32.41c-.323,0-.641-.156-.833-.445-.307-.46-.183-1.08,.277-1.387,1.246-.831,2.629-1.393,4.109-1.671,.541-.101,1.065,.255,1.167,.798,.103,.543-.255,1.065-.798,1.167-1.215,.229-2.349,.689-3.369,1.37-.171,.113-.363,.168-.554,.168Z" style="fill:#038443;"/><path d="M23,36c.1-5.47,4.09-13,9-13s8.9,7.53,9,13H23Z" style="fill:#e5e4e3;"/><path d="M28,35c.02-2.19,1.8-4,4-4s3.98,1.81,4,4v1h-8v-1Z" style="fill:#f9844a;"/><path d="M53.14,34.74c-3.24,.47-7.3,.84-11.89,1.05l-.14-.99c-.07-.25-.11-.52-.11-.8,0-1.66,1.34-3,3-3,0-1.07,.56-2.02,1.41-2.55,.46-.28,1-.45,1.59-.45,.76,0,1.45,.29,1.98,.75,.63,.55,1.02,1.35,1.02,2.25,1.58,0,2.87,1.21,2.98,2.76l.16,.98Z" style="fill:#f9c74f;"/><path d="M17,33c0,.79-.31,1.51-.81,2.04-.09,.11-.19,.2-.3,.29-1.52-.14-2.94-.3-4.24-.48-.41-.51-.65-1.15-.65-1.85,0-1.66,1.34-3,3-3,1.29,0,2.39,.81,2.81,1.96,.12,.32,.19,.67,.19,1.04Z" style="fill:#bc2b3d;"/><path d="M22,34c0,.65-.21,1.24-.55,1.73-1.8-.1-3.52-.22-5.12-.37-.06-.1-.1-.21-.14-.32-.12-.32-.19-.67-.19-1.04,0-.79,.31-1.51,.81-2.04,.54-.59,1.32-.96,2.19-.96,1.66,0,3,1.34,3,3Z" style="fill:#d1303d;"/></svg>